<svg width="385" height="855" viewBox="0 0 385 855" fill="none" xmlns="http://www.w3.org/2000/svg">
<path d="M304.81 159.509L231.31 244.509L201.31 280.509L212.81 290.509L222.31 852.009L204.81 850.009L192.81 852.009L187.31 850.009L180.81 844.509L147.31 837.509L126.81 846.009L121.81 843.009L116.81 837.509L106.31 835.509L103.81 837.509H93.3101L86.8101 835.509L83.8101 829.509L38.3101 818.509L27.3101 821.509L10.8101 818.509L8.31006 721.009H3.81006V718.509L29.8101 687.009V680.009L21.3101 675.009L22.3101 660.509L27.8101 650.509L19.8101 645.509L21.3101 626.509L27.8101 619.009V615.009L18.8101 610.509V595.509L25.8101 585.009L17.8101 579.509L20.3101 562.509L25.8101 549.509L16.8101 543.009L18.8101 529.509L25.8101 519.509L15.8101 515.009L17.8101 495.009L25.8101 483.009L15.8101 478.509L16.8101 462.009L23.3101 453.509L15.8101 448.509V428.009L23.3101 422.509V416.509L13.8101 412.009L15.8101 396.509L20.8101 386.509L12.3101 383.509V372.009L20.8101 357.009V350.509L12.3101 345.509V331.009L18.8101 320.009L12.3101 316.509V297.509L18.8101 289.509V280.509L5.31006 277.009V268.509L12.3101 258.509V206.009L2.81006 198.009L15.3101 183.009V168.509L9.81006 165.509L124.81 35.0093H142.81L171.81 2.50928L178.31 6.00928L378.81 52.5093L380.31 122.009H382.31V130.509L378.81 134.509V180.509L311.81 162.009L304.81 159.509Z" fill="#FF6A00" fill-opacity="0.1" stroke="#FF6A00" stroke-width="4"/>
</svg>
