<svg width="572" height="696" viewBox="0 0 572 696" fill="none" xmlns="http://www.w3.org/2000/svg">
<path d="M6.5 346.517L9 437.517L16 441.017L216.5 487.517L217.5 559.017L216.5 616.517L242.5 623.517L247 618.517L303.5 631.517L320.5 613.517L412.5 635.017L411 649.017L428.5 653.017L425 659.517L497 677.017L495.5 681.517L531 690.517L528 694.017L564 680.517V657.017L568.5 651.517L566.5 157.517L569 155.017L568.5 144.517L562 139.517V129.517L551.5 117.517V89.5171L561 87.0171L568.5 77.5171V74.0171L517.5 27.5171L321.5 3.01709L307 2.01709L301 3.51709L251 59.5171L245 58.0171L235.5 58.5171L168.5 135.017V153.517L117.5 211.517L113.5 210.017H101.5L28 293.517V313.017L2 342.017V344.517L6.5 346.517Z" fill="#FF6A00" fill-opacity="0.1" stroke="#FF6A00" stroke-width="4"/>
</svg>
