<svg width="505" height="964" viewBox="0 0 505 964" fill="none" xmlns="http://www.w3.org/2000/svg">
<path d="M17.0093 899.734H5.00928H4.00928L2.00928 800.234L6.00928 792.234V372.234L54.5093 313.734V282.234L58.5093 275.234L72.5093 261.734L94.5093 266.234L266.009 52.2344L291.509 57.2344L337.009 2.23438L391.509 15.2344L481.009 102.734L499.009 107.734L490.009 119.734V179.234H494.509V516.734L502.509 520.234V620.234L271.509 919.734H259.009L220.509 960.734L194.509 951.734L145.509 937.734H129.509L117.509 934.234H108.009L103.009 930.234L99.5093 919.734L63.5093 911.734H49.0093L40.5093 905.734L17.0093 899.734Z" fill="#FF6A00" fill-opacity="0.1" stroke="#FF6A00" stroke-width="4"/>
</svg>
