<svg width="499" height="826" viewBox="0 0 499 826" fill="none" xmlns="http://www.w3.org/2000/svg">
<path d="M14.3413 131.755L24.8413 728.255L83.8413 746.255L86.3413 761.255H102.341L149.841 773.755L156.841 778.755L168.341 782.255L176.841 772.755L224.841 785.755L227.341 797.255L237.341 798.255H251.841L309.841 811.755L322.841 818.255L328.841 809.755H340.841L408.841 823.755L423.841 804.255L421.841 704.255L425.841 695.755V276.255L474.341 217.755V186.255L477.841 179.255V120.755L495.341 96.2552L459.841 87.2552L461.341 82.7552L389.841 64.7552L393.341 58.2552L374.841 54.7552L376.841 40.7552L284.841 19.7552L268.341 37.7552L211.841 24.2552L207.341 29.2552L105.341 2.25525L2.84131 122.255L14.3413 131.755Z" fill="#FF6A00" fill-opacity="0.1" stroke="#FF6A00" stroke-width="4"/>
</svg>
